<?xml version="1.0" encoding="UTF-8"?>
<svg id="Layer_2" data-name="Layer 2" xmlns="http://www.w3.org/2000/svg" viewBox="0 0 1111.43 1114.19">
  <defs>
    <style>
      .cls-1 {
        fill: #fff;
      }
    </style>
  </defs>
  <g id="Layer_1-2" data-name="Layer 1">
    <path class="cls-1" d="M0,459.63v554.2c0,55.43,44.93,100.36,100.36,100.36h258.31c55.43,0,100.36-44.93,100.36-100.36v-78.68c0-44.55,51.52-69.35,86.34-41.55l232.3,185.47c28.48,22.74,63.83,35.12,100.27,35.12h153.04c44.43,0,80.45-36.02,80.45-80.45v-232.24c0-44.43-36.02-80.45-80.45-80.45h-490.26c-45.44,0-82.27-36.83-82.27-82.27v-176.66c0-45.44,36.83-82.27,82.27-82.27h490.26c44.43,0,80.45-36.02,80.45-80.45V80.45c0-44.43-36.02-80.45-80.45-80.45H485.35c-35.66,0-70.01,13.45-96.18,37.67L45.45,355.67C16.47,382.48,0,420.16,0,459.63Z"/>
  </g>
</svg>