<svg width="609" height="7" viewBox="0 0 609 7" fill="none" xmlns="http://www.w3.org/2000/svg">
<path d="M0.0348838 2.11524C0.0337633 2.44857 0.0326429 2.7819 0.0315225 3.11523C10.1643 3.3155 20.2971 3.50749 30.4299 3.69118C121.625 5.34445 212.823 6.32641 304.023 6.63705C304.301 6.63799 304.578 6.63893 304.855 6.63986C395.778 6.94549 486.703 6.57652 577.63 5.53298C587.764 5.41667 597.898 5.29199 608.031 5.15893C608.032 4.8256 608.034 4.49227 608.035 4.15893C597.902 3.95775 587.769 3.76494 577.636 3.58052C486.718 1.92573 395.798 0.94552 304.876 0.639898C304.598 0.638965 304.321 0.638039 304.043 0.637118C212.843 0.334648 121.641 0.703494 30.4365 1.74365C20.3026 1.85923 10.1688 1.98309 0.0348838 2.11524Z" fill="url(#paint0_linear_3685_4130)"/>
<defs>
<linearGradient id="paint0_linear_3685_4130" x1="0.0315225" y1="3.11523" x2="608.031" y2="5.15893" gradientUnits="userSpaceOnUse">
<stop stop-color="#100418" stop-opacity="0"/>
<stop offset="0.475962" stop-color="white" stop-opacity="0.5"/>
<stop offset="1" stop-color="#100418" stop-opacity="0"/>
</linearGradient>
</defs>
</svg>
